:SAMPLES-PER-SECOND 30
:FULLY-SPECIFIED
:DEGREES
47
root  -2.44118 40.9037 0.862666 176.448 -85.5087 -178.249
RightUpLeg  2.49053 -0.735323 -1.51939
RightLeg  0.374362 -13.8402 -0.805448
RightFoot  -0.194459 -0.354464 3.63973
RightToes  -3.13006e-008 1.75238e-005 3.56266e-009
Spine  -5.83976 -0.628764 -0.912896
Spine1  12.8448 -0.890006 0.844341
HEad  -19.6925 2.28028 1.68549
LeftShoulder1  2.63958 -5.02209 -24.7709
LeftArm  -45.0566 33.7172 -60.9213
LeftForeArm  145.211 -74.7882 -140.342
LeftHand  -0.96007 -3.17708 13.2306
RightShoulder  3.00535 5.67212 26.7742
RightArm  -26.2227 -26.6006 36.731
RightForeArm  94.2419 76.9975 120.449
RightHand  -1.3025 8.75641 -11.0216
LeftUpLeg  3.95365 1.20647 1.15
LeftLeg  0.273127 17.1763 -0.549055
LeftFoot  -2.18104 0.129114 -1.45875
LeftToes  4.78685e-008 1.46778e-008 1.34523e-009
48
root  -2.44888 40.9034 0.881953 175.989 -84.7353 -177.621
RightUpLeg  2.1747 -0.495689 -1.38175
RightLeg  0.453217 -13.3156 -0.924831
RightFoot  -0.173949 -0.352709 3.56988
RightToes  -3.13006e-008 1.75238e-005 3.56266e-009
Spine  -6.28518 -0.24913 -1.13689
Spine1  13.6166 -0.622492 1.30369
HEad  -21.1245 2.0316 0.730046
LeftShoulder1  2.80437 -5.31694 -25.6539
LeftArm  -42.605 37.211 -62.6592
LeftForeArm  139.258 -74.9659 -138.704
LeftHand  -0.946431 -2.42719 14.2209
RightShoulder  3.01514 5.55892 27.2873
RightArm  -25.2545 -29.3742 40.8379
RightForeArm  89.6303 77.8226 113.826
RightHand  -1.22636 8.69355 -10.4425
LeftUpLeg  3.92871 1.30065 1.20815
LeftLeg  0.146829 17.8071 -0.630576
LeftFoot  -2.16247 0.114577 -1.25149
LeftToes  4.78685e-008 1.46778e-008 1.34523e-009
49
root  -2.41708 40.8978 0.906517 176.216 -84.2481 -177.793
RightUpLeg  1.87233 -0.387985 -1.36567
RightLeg  0.705714 -12.9242 -1.05659
RightFoot  -0.16925 -0.363269 3.68971
RightToes  -3.13006e-008 1.75238e-005 3.56266e-009
Spine  -6.14886 -0.076721 -1.05969
Spine1  13.8589 -0.410924 1.16817
HEad  -22.6224 2.40197 -0.427898
LeftShoulder1  2.79581 -5.28903 -25.654
LeftArm  -38.5137 39.9597 -61.5759
LeftForeArm  138.329 -75.3011 -137.551
LeftHand  -0.974822 -2.59874 14.3885
RightShoulder  3.17802 5.81005 28.1643
RightArm  -24.9685 -31.2871 43.7179
RightForeArm  85.317 78.2706 108.631
RightHand  -1.28112 8.66535 -10.9045
LeftUpLeg  3.77576 1.31238 1.19002
LeftLeg  0.354286 18.2802 -0.591193
LeftFoot  -2.30866 0.127034 -1.46314
LeftToes  4.78685e-008 1.46778e-008 1.34523e-009
50
root  -2.42635 40.8995 0.932291 173.567 -84.4016 -175.392
RightUpLeg  2.38116 -0.354249 -1.19399
RightLeg  0.312808 -13.1578 -0.89673
RightFoot  0.00671321 -0.364486 3.66537
RightToes  -3.13006e-008 1.75238e-005 3.56266e-009
Spine  -6.2351 -0.28966 -1.21838
Spine1  14.6606 -0.74985 1.49321
HEad  -23.7017 2.46856 -0.953095
LeftShoulder1  2.75737 -5.22487 -25.4385
LeftArm  -36.2882 41.511 -60.0007
LeftForeArm  144.717 -75.482 -138.304
LeftHand  -0.978337 -4.10576 12.2001
RightShoulder  3.35364 6.19011 28.6553
RightArm  -25.1652 -31.3841 45.5425
RightForeArm  80.9696 78.5013 104.537
RightHand  -1.39919 8.5699 -11.9473
LeftUpLeg  3.84409 1.4973 1.42612
LeftLeg  0.804939 17.9074 -0.441761
LeftFoot  -2.5178 0.128271 -1.49919
LeftToes  4.78685e-008 1.46778e-008 1.34523e-009
51
root  -2.40206 40.8958 0.949825 172.775 -84.2677 -174.752
RightUpLeg  2.49647 -0.284653 -1.11036
RightLeg  0.292397 -13.1059 -0.930032
RightFoot  0.0432873 -0.367394 3.66854
RightToes  -3.13006e-008 1.75238e-005 3.56266e-009
Spine  -6.22682 -0.332809 -1.8377
Spine1  15.0972 -1.02782 2.35949
HEad  -24.4984 1.808 -1.33424
LeftShoulder1  2.81037 -5.35624 -25.575
LeftArm  -34.7557 41.4273 -57.7466
LeftForeArm  147.41 -75.468 -138.887
LeftHand  -0.978877 -4.78919 11.4265
RightShoulder  3.32706 6.15777 28.4892
RightArm  -24.3802 -30.0143 46.0249
RightForeArm  77.5992 78.6325 101.36
RightHand  -1.27381 8.43126 -11.0247
LeftUpLeg  3.88129 1.59897 1.50935
LeftLeg  1.04331 17.8971 -0.395894
LeftFoot  -2.63097 0.127976 -1.50971
LeftToes  4.78685e-008 1.46778e-008 1.34523e-009
52
root  -2.36453 40.8927 0.984513 173.074 -83.9359 -175.052
RightUpLeg  2.29369 -0.26461 -1.15111
RightLeg  0.488439 -12.77 -0.989978
RightFoot  0.0390878 -0.371567 3.69751
RightToes  -3.13006e-008 1.75238e-005 3.56266e-009
Spine  -6.32823 -0.154183 -1.93252
Spine1  15.242 -0.905306 2.59057
HEad  -24.5696 1.68197 -1.38007
LeftShoulder1  2.81139 -5.42546 -25.3309
LeftArm  -33.2506 39.9646 -55.2869
LeftForeArm  145.951 -75.5013 -138.496
LeftHand  -0.945075 -4.36499 11.5052
RightShoulder  3.29673 6.07267 28.4788
RightArm  -24.0721 -27.1935 45.4333
RightForeArm  73.8106 78.769 97.3788
RightHand  -1.18333 8.6614 -10.1119
LeftUpLeg  3.8462 1.5745 1.44222
LeftLeg  1.05126 18.2718 -0.39048
LeftFoot  -2.62113 0.121042 -1.4148
LeftToes  4.78685e-008 1.46778e-008 1.34523e-009
53
root  -2.32107 40.8899 1.03256 173.434 -83.71 -175.427
RightUpLeg  2.14278 -0.305662 -1.254
RightLeg  0.599538 -12.5101 -0.998392
RightFoot  0.0603699 -0.379587 3.78849
RightToes  -3.13006e-008 1.75238e-005 3.56266e-009
Spine  -6.16598 0.114169 -1.8955
Spine1  14.837 -0.645574 2.67053
HEad  -23.875 1.26602 -1.21455
LeftShoulder1  2.7884 -5.4789 -24.8671
LeftArm  -32.9214 36.7509 -53.0171
LeftForeArm  143.507 -76.0628 -136.255
LeftHand  -0.948964 -4.49255 11.4089
RightShoulder  3.33713 6.19237 28.4689
RightArm  -24.3863 -24.0226 44.0378
RightForeArm  71.9396 78.7761 96.0432
RightHand  -1.20111 8.39029 -10.4464
LeftUpLeg  3.796 1.48967 1.30861
LeftLeg  1.08237 18.6296 -0.330885
LeftFoot  -2.60853 0.121445 -1.43121
LeftToes  4.78685e-008 1.46778e-008 1.34523e-009
